<svg width="286" height="286" viewBox="0 0 286 286" fill="none" xmlns="http://www.w3.org/2000/svg">
<g clip-path="url(#clip0_18_277)">
<path d="M205.08 160.875C203.069 142.752 194.96 125.85 182.083 112.941C169.206 100.031 152.325 91.8795 134.207 89.8226C116.089 87.7657 97.8105 91.9254 82.3672 101.62C66.9238 111.314 55.2324 125.968 49.2099 143.179C35.4093 144.308 22.5806 150.732 13.4092 161.106C4.23773 171.48 -0.565457 184.999 0.00503293 198.834C0.575523 212.669 6.47547 225.747 16.4699 235.331C26.4642 244.914 39.7783 250.26 53.625 250.25H205.562C217.414 250.186 228.755 245.416 237.091 236.991C245.426 228.565 250.073 217.173 250.009 205.321C249.945 193.469 245.175 182.128 236.749 173.793C228.324 165.458 216.932 160.811 205.08 160.875Z" fill="white"/>
<path d="M259.974 174.674C255.749 167.224 250.038 160.721 243.197 155.568C236.356 150.415 228.529 146.721 220.202 144.716C213.862 120.681 198.653 99.9397 177.636 86.667C156.62 73.3942 131.355 68.5753 106.928 73.1802C113.783 60.5571 124.279 50.29 137.051 43.7154C149.822 37.1408 164.277 34.5633 178.533 36.3184C192.79 38.0735 206.188 44.0798 216.984 53.5556C227.779 63.0314 235.472 75.5377 239.06 89.4465C249.438 88.9167 259.675 92.0196 268.012 98.2216C276.349 104.424 282.264 113.337 284.739 123.428C287.215 133.52 286.097 144.158 281.577 153.514C277.057 162.871 269.418 170.341 259.974 174.674Z" fill="white"/>
</g>
<defs>
<clipPath id="clip0_18_277">
<rect width="286" height="286" fill="white"/>
</clipPath>
</defs>
</svg>
