<svg width="33" height="33" viewBox="0 0 33 33" fill="none" xmlns="http://www.w3.org/2000/svg">
<path d="M24.2825 15.4C23.9663 14.9875 23.5813 14.63 23.2238 14.2725C22.3025 13.4475 21.2575 12.8563 20.3775 11.99C18.3288 9.9825 17.875 6.66875 19.1813 4.125C17.875 4.44125 16.7338 5.15625 15.7575 5.94C12.1963 8.8 10.7938 13.8463 12.4713 18.1775C12.5263 18.315 12.5813 18.4525 12.5813 18.6313C12.5813 18.9338 12.375 19.2088 12.1 19.3188C11.7838 19.4563 11.4538 19.3738 11.1925 19.1538C11.114 19.0888 11.0487 19.0095 11 18.92C9.44626 16.9538 9.19876 14.135 10.2438 11.88C7.94751 13.75 6.69626 16.9125 6.87501 19.8963C6.95751 20.5838 7.04001 21.2713 7.27376 21.9588C7.46626 22.7838 7.83751 23.6088 8.25001 24.3375C9.73501 26.7163 12.3063 28.4213 15.07 28.765C18.0125 29.1363 21.1613 28.6 23.4163 26.565C25.9325 24.2825 26.8125 20.625 25.52 17.49L25.3413 17.1325C25.0525 16.5 24.2825 15.4 24.2825 15.4ZM19.9375 24.0625C19.5525 24.3925 18.92 24.75 18.425 24.8875C16.885 25.4375 15.345 24.6675 14.4375 23.76C16.0738 23.375 17.05 22.165 17.3388 20.9413C17.5725 19.8413 17.1325 18.9338 16.9538 17.875C16.7888 16.8575 16.8163 15.9913 17.1875 15.0425C17.4488 15.565 17.7238 16.0875 18.0538 16.5C19.1125 17.875 20.7763 18.48 21.1338 20.35C21.1888 20.5425 21.2163 20.735 21.2163 20.9413C21.2575 22.0688 20.7625 23.3063 19.9375 24.0625Z" fill="#BC4A4D"/>
</svg>
