<svg width="513" height="335" viewBox="0 0 513 335" fill="none" xmlns="http://www.w3.org/2000/svg">
<g clip-path="url(#clip0_35_38)">
<path d="M252.94 333.584H233.234V196.188H249.261C250.037 196.188 250.782 196.466 251.332 196.962C251.882 197.458 252.193 198.132 252.197 198.835L252.94 333.584Z" fill="#F8BD00"/>
<path d="M235.076 334.312H23.4525V236.462H235.076V334.312Z" fill="white"/>
<path d="M151.664 333.948H23.8541V236.826H234.674V258.75C234.649 278.687 225.896 297.801 210.334 311.898C194.772 325.996 173.672 333.926 151.664 333.948Z" fill="#A83332"/>
<path d="M249.731 200.091C249.625 200.273 249.542 200.466 249.485 200.665L242.188 226.146L234.272 239.726H24.2557V236.344L36.2126 226.146L50.161 201.977C50.7768 200.91 51.5854 199.944 52.5533 199.119C54.7618 197.236 57.68 196.188 60.7126 196.188H247.134C247.641 196.188 248.138 196.306 248.579 196.532C249.019 196.757 249.388 197.082 249.649 197.475C249.911 197.868 250.055 198.315 250.07 198.773C250.084 199.232 249.967 199.685 249.731 200.091Z" fill="#F2F2F2"/>
<path d="M235.076 334.312H23.4525V236.462H235.076V334.312ZM25.0589 332.857H233.469V237.917H25.0589V332.857Z" fill="#E6E6E6"/>
<path d="M246.086 213.126L242.187 226.146H36.2129L42.8685 215.309L246.086 213.126Z" fill="#F8BD00"/>
<path d="M64.9911 287.737H31.2563V289.428H64.9911V287.737Z" fill="white"/>
<path d="M64.9911 293.656H31.2563V295.347H64.9911V293.656Z" fill="white"/>
<path d="M64.9911 299.575H31.2563V301.266H64.9911V299.575Z" fill="white"/>
<path d="M44.324 268.898C51.0256 268.898 56.4583 263.977 56.4583 257.906C56.4583 251.835 51.0256 246.914 44.324 246.914C37.6224 246.914 32.1897 251.835 32.1897 257.906C32.1897 263.977 37.6224 268.898 44.324 268.898Z" fill="white"/>
<path d="M177.318 218.762H167.013V146.91H175.394C175.8 146.91 176.189 147.056 176.477 147.315C176.765 147.574 176.927 147.926 176.929 148.294L177.318 218.762Z" fill="#F8BD00"/>
<path d="M167.976 219.142H57.3066V167.971H167.976V219.142Z" fill="white"/>
<path d="M124.356 218.952H57.5167V168.162H167.766V179.627C167.753 190.053 163.175 200.049 155.037 207.421C146.899 214.793 135.865 218.94 124.356 218.952Z" fill="#A83332"/>
<path d="M175.64 148.951C175.584 149.046 175.541 149.147 175.511 149.251L171.695 162.577L167.556 169.678H57.7267V167.91L63.9797 162.577L71.274 149.937C71.596 149.379 72.0189 148.874 72.5251 148.443C73.68 147.458 75.2061 146.91 76.792 146.91H174.282C174.547 146.91 174.807 146.972 175.037 147.09C175.268 147.208 175.461 147.378 175.597 147.583C175.734 147.788 175.809 148.022 175.817 148.262C175.824 148.502 175.763 148.739 175.64 148.951Z" fill="#F2F2F2"/>
<path d="M167.976 219.142H57.3066V167.971H167.976V219.142ZM58.1468 218.381H167.136V168.732H58.1468V218.381Z" fill="#E6E6E6"/>
<path d="M173.733 155.768L171.695 162.576H63.9798L67.4602 156.909L173.733 155.768Z" fill="#F8BD00"/>
<path d="M79.0294 194.786H61.3877V195.67H79.0294V194.786Z" fill="white"/>
<path d="M79.0294 197.881H61.3877V198.765H79.0294V197.881Z" fill="white"/>
<path d="M79.0294 200.976H61.3877V201.861H79.0294V200.976Z" fill="white"/>
<path d="M68.2215 184.934C71.7261 184.934 74.5671 182.36 74.5671 179.186C74.5671 176.011 71.7261 173.437 68.2215 173.437C64.7168 173.437 61.8758 176.011 61.8758 179.186C61.8758 182.36 64.7168 184.934 68.2215 184.934Z" fill="white"/>
<path d="M481.038 334.262L480.974 333.952C479.931 328.743 480.153 323.391 481.624 318.268C483.095 313.145 485.78 308.374 489.492 304.286C491.594 302.007 494.005 299.978 496.667 298.246L496.92 298.08L497.031 298.345C498.355 301.507 500.027 304.674 500.788 306.076L501.302 295.611L501.596 295.47C502.939 294.818 504.468 294.545 505.984 294.687C507.501 294.829 508.935 295.379 510.104 296.266C511.312 297.145 512.202 298.333 512.659 299.675C513.116 301.017 513.119 302.453 512.667 303.796C512.268 305.026 511.891 306.301 511.526 307.535C510.272 311.773 508.976 316.156 506.464 319.847C504.532 322.623 501.94 324.974 498.877 326.727C495.814 328.48 492.358 329.591 488.76 329.979L481.038 334.262Z" fill="#F8BD00"/>
<path d="M513 334.134C513 334.248 512.976 334.361 512.928 334.466C512.88 334.571 512.81 334.667 512.721 334.747C512.632 334.828 512.526 334.891 512.41 334.935C512.294 334.978 512.17 335 512.044 335H0.955848C0.702342 335 0.459215 334.909 0.279959 334.746C0.100704 334.584 0 334.364 0 334.134C0 333.904 0.100704 333.684 0.279959 333.522C0.459215 333.359 0.702342 333.268 0.955848 333.268H512.044C512.17 333.268 512.294 333.29 512.41 333.333C512.526 333.377 512.632 333.441 512.721 333.521C512.81 333.602 512.88 333.697 512.928 333.802C512.976 333.908 513 334.02 513 334.134Z" fill="#F8BD00"/>
<path d="M397.073 112.584L382.444 110.686C377.497 118.181 375.738 138.129 375.738 138.129L361.422 168.955C360.473 169.539 359.712 170.338 359.213 171.273C358.714 172.208 358.496 173.245 358.581 174.281C358.665 175.316 359.049 176.313 359.695 177.172C360.34 178.03 361.223 178.719 362.256 179.17C363.288 179.62 364.434 179.817 365.577 179.739C366.72 179.661 367.82 179.312 368.766 178.726C369.713 178.141 370.473 177.34 370.969 176.404C371.465 175.468 371.68 174.43 371.593 173.395L395.1 137.514L397.073 112.584Z" fill="#FFB8B8"/>
<path d="M394.745 75.7926C397.009 76.1103 399.168 76.8761 401.069 78.0356C402.969 79.1952 404.564 80.7199 405.74 82.5013C406.916 84.2827 407.645 86.277 407.873 88.3423C408.102 90.4077 407.825 92.4932 407.062 94.4507L403.958 102.422C403.958 102.422 402.268 126.423 395.823 133.198L376.047 131.576C376.047 131.576 379.663 119.467 376.887 113.609C375.187 110.021 375.282 97.6281 376.957 87.547C377.271 85.7162 377.98 83.9596 379.045 82.3776C380.109 80.7956 381.507 79.4192 383.159 78.3274C384.812 77.2356 386.685 76.4497 388.673 76.0148C390.661 75.5798 392.725 75.5043 394.745 75.7926Z" fill="#A83332"/>
<path d="M443.091 324.834L434.279 324.833L430.087 294.042L443.093 294.042L443.091 324.834Z" fill="#FFB6B6"/>
<path d="M443.402 333.162L416.303 333.161V332.85C416.303 330.316 417.414 327.886 419.393 326.094C421.371 324.302 424.053 323.296 426.85 323.296L431.801 319.894L441.037 323.296L443.402 323.296L443.402 333.162Z" fill="#2F2E41"/>
<path d="M404.78 286.673L396.64 289.73L379.746 262.742L391.761 258.229L404.78 286.673Z" fill="#FFB6B6"/>
<path d="M408.588 294.257L383.557 303.66L383.425 303.374C382.354 301.033 382.353 298.402 383.422 296.061C384.491 293.719 386.544 291.858 389.128 290.887L392.262 286.027L402.232 285.965L404.417 285.144L408.588 294.257Z" fill="#2F2E41"/>
<path d="M453.167 149.673L390.629 155.592L382.263 181.116L353.292 223.292L385.28 276.532L396.545 267.372L385.732 224.38L418.007 192.816L424.127 190.516L428.985 307.643L446.953 307.911L454.816 178.668C458.594 167.25 457.457 157.823 453.167 149.673Z" fill="#2F2E41"/>
<path d="M430.238 68.87L419.974 58.3994L403.754 60.032L393.369 73.1972C387.842 74.3484 383.012 77.3748 379.872 81.654C376.733 85.9331 375.524 91.1395 376.493 96.2019C380.522 117.223 394.217 137.61 389.695 147.982C382.831 163.726 382.412 170.147 398.843 167.94C415.275 165.732 470.322 160.644 459.65 150.976C448.977 141.307 446.633 125.151 446.633 125.151L446.205 88.1894C446.659 85.9601 446.598 83.6699 446.028 81.4628C445.457 79.2557 444.388 77.1795 442.888 75.3648C441.388 73.5502 439.49 72.0363 437.313 70.9186C435.136 69.8008 432.727 69.1033 430.238 68.87Z" fill="#A83332"/>
<path d="M410.179 55.72C420.123 55.72 428.184 48.4175 428.184 39.4095C428.184 30.4015 420.123 23.099 410.179 23.099C400.235 23.099 392.174 30.4015 392.174 39.4095C392.174 48.4175 400.235 55.72 410.179 55.72Z" fill="#FFB8B8"/>
<path d="M432.364 38.441C431.56 41.7456 430.109 44.8933 428.081 47.7352C427.543 48.7042 426.739 49.5315 425.746 50.1377C425.243 50.43 424.643 50.5533 424.05 50.4862C423.457 50.4191 422.909 50.1658 422.501 49.7704L422.063 49.4471C422.922 48.9676 423.689 48.3646 424.334 47.6617C424.654 47.309 424.875 46.8923 424.981 46.4463C425.087 46.0004 425.074 45.5379 424.943 45.0975C424.787 44.6632 424.452 44.3004 424.007 44.0853C423.562 43.8702 423.043 43.8195 422.558 43.944C421.504 44.3187 420.863 45.7 419.76 45.487C418.868 45.3106 418.681 44.2453 418.681 43.4077C418.714 39.0287 416.378 32.8056 414.569 32.9967C412.742 33.0872 410.912 32.8653 409.176 32.3427C407.437 31.8193 405.603 31.6072 403.774 31.7182C403.645 31.7329 403.515 31.755 403.377 31.777C403.084 30.945 402.681 30.1482 402.177 29.4039C402.233 30.3024 402.184 31.2038 402.031 32.0929C400.576 32.6361 399.073 33.0662 397.537 33.3787C395.867 33.5918 392.193 38.1177 392.022 37.6548C391.729 36.8228 391.326 36.026 390.822 35.2816C390.879 36.1801 390.83 37.0816 390.676 37.9707C390.668 38.0074 390.668 38.0368 390.66 38.0736C389.849 37.0963 389.354 35.9061 389.63 36.8172C386.913 31.248 387.967 27.2585 392.241 22.5636C393.074 21.5541 394.177 20.7527 395.445 20.2345C396.08 19.9817 396.776 19.8814 397.467 19.9432C398.157 20.0049 398.818 20.2267 399.387 20.5872C401.13 19.1393 403.269 18.1401 405.582 17.6931C407.895 17.2461 410.298 17.3676 412.542 18.045C416.994 19.4484 420.425 20.2712 421.106 24.5033C424.788 23.9669 428.576 25.8625 430.604 28.6911C432.623 31.5272 433.037 35.1273 432.364 38.441Z" fill="#2F2E41"/>
<path d="M417.763 173.914H411.788V132.25H416.648C416.883 132.25 417.109 132.335 417.276 132.485C417.442 132.635 417.537 132.839 417.538 133.053L417.763 173.914Z" fill="#F8BD00" fill-opacity="0.94902"/>
<path d="M412.346 174.135H348.173V144.463H412.346V174.135Z" fill="white"/>
<path d="M387.052 174.025H348.295V144.573H412.224V151.221C412.217 157.267 409.562 163.063 404.843 167.338C400.124 171.613 393.726 174.018 387.052 174.025Z" fill="#A83332"/>
<path d="M416.79 133.434C416.758 133.489 416.733 133.547 416.716 133.608L414.503 141.335L412.102 145.453H348.417V144.427L352.042 141.335L356.272 134.006C356.459 133.682 356.704 133.389 356.998 133.139C357.667 132.568 358.552 132.25 359.472 132.25H416.003C416.156 132.25 416.307 132.286 416.441 132.354C416.574 132.423 416.686 132.521 416.765 132.64C416.845 132.759 416.889 132.895 416.893 133.034C416.897 133.173 416.862 133.311 416.79 133.434Z" fill="#F2F2F2" fill-opacity="0.94902"/>
<path d="M412.346 174.135H348.173V144.463H412.346V174.135ZM348.66 173.694H411.859V144.904H348.66V173.694Z" fill="#3F3D56" fill-opacity="0.94902"/>
<path d="M415.684 137.386L414.503 141.335H352.043L354.06 138.048L415.684 137.386Z" fill="#F8BD00"/>
<path d="M360.769 160.011H350.539V160.524H360.769V160.011Z" fill="white"/>
<path d="M360.769 161.806H350.539V162.319H360.769V161.806Z" fill="white"/>
<path d="M360.769 163.601H350.539V164.114H360.769V163.601Z" fill="white"/>
<path d="M354.502 154.299C356.534 154.299 358.182 152.807 358.182 150.966C358.182 149.125 356.534 147.632 354.502 147.632C352.47 147.632 350.823 149.125 350.823 150.966C350.823 152.807 352.47 154.299 354.502 154.299Z" fill="white"/>
<path d="M442.729 108.775L428.1 106.877C423.152 114.371 421.394 134.32 421.394 134.32L407.077 165.146C406.129 165.73 405.367 166.529 404.868 167.464C404.37 168.399 404.152 169.436 404.236 170.472C404.321 171.507 404.705 172.504 405.35 173.362C405.995 174.221 406.879 174.91 407.911 175.36C408.944 175.811 410.089 176.007 411.232 175.93C412.375 175.852 413.475 175.502 414.422 174.917C415.368 174.332 416.128 173.531 416.624 172.595C417.121 171.659 417.336 170.621 417.249 169.585L440.755 133.705L442.729 108.775Z" fill="#FFB8B8"/>
<path d="M434.8 71.9832C437.064 72.3009 439.223 73.0667 441.124 74.2262C443.024 75.3858 444.619 76.9105 445.795 78.6919C446.971 80.4733 447.7 82.4676 447.928 84.5329C448.157 86.5982 447.88 88.6838 447.118 90.6412L444.013 98.6124C444.013 98.6124 447.924 122.614 441.479 129.389L421.703 127.767C421.703 127.767 425.319 115.658 422.543 109.799C420.843 106.211 420.937 93.8187 422.612 83.7375C423.891 76.0398 426.308 70.7918 434.8 71.9832Z" fill="#A83332"/>
<path d="M310.579 32.271C303.431 35.5002 297.993 41.1692 295.459 48.031C292.926 54.8928 293.505 62.3853 297.07 68.8601C304.493 82.3433 331.316 105.339 352.718 108.813C343.512 83.4913 356.312 57.7526 350.969 44.5088C345.259 30.3574 325.462 25.5466 310.579 32.271Z" fill="#A83332"/>
<path d="M320.611 64.3384C326.036 64.3384 330.433 60.355 330.433 55.4411C330.433 50.5273 326.036 46.5438 320.611 46.5438C315.187 46.5438 310.79 50.5273 310.79 55.4411C310.79 60.355 315.187 64.3384 320.611 64.3384Z" fill="white"/>
<path d="M352.529 123.094C356.082 123.094 358.962 120.485 358.962 117.267C358.962 114.048 356.082 111.439 352.529 111.439C348.976 111.439 346.096 114.048 346.096 117.267C346.096 120.485 348.976 123.094 352.529 123.094Z" fill="#A83332"/>
<path opacity="0.2" d="M323.605 46.0884C324.894 46.0478 326.18 46.2378 327.389 46.6477C328.597 47.0575 329.705 47.6791 330.648 48.4769C331.591 49.2747 332.352 50.233 332.886 51.2972C333.42 52.3613 333.718 53.5104 333.761 54.6788C333.805 55.8471 333.594 57.0119 333.141 58.1063C332.687 59.2008 332 60.2036 331.119 61.0574C330.237 61.9112 329.179 62.5993 328.004 63.0823C326.828 63.5653 325.56 63.8338 324.27 63.8724C326.456 63.136 328.281 61.7189 329.419 59.8748C330.556 58.0307 330.933 55.8799 330.48 53.8075C330.027 51.7351 328.775 49.8762 326.948 48.5637C325.12 47.2512 322.837 46.5706 320.506 46.6438C321.499 46.3084 322.546 46.1209 323.605 46.0884Z" fill="#231F20"/>
<path opacity="0.2" d="M351.018 44.5141C356.362 57.7578 343.561 83.4965 352.767 108.819C350.747 108.482 348.757 108.01 346.814 107.407C339.314 82.9283 351.086 58.4685 345.923 45.6727C341.303 34.2202 327.456 28.8864 314.453 30.8322C328.724 26.4233 345.786 31.5457 351.018 44.5141Z" fill="#231F20"/>
<path d="M49.5275 167.388C42.1288 167.227 34.9626 169.735 29.6053 174.361C24.248 178.986 21.1385 185.35 20.9608 192.053C20.5909 206.01 31.5607 235.374 47.4273 246.621C52 222.267 74.7958 206.211 76.7544 193.266C78.8473 179.435 64.9345 167.723 49.5275 167.388Z" fill="#F8BD00"/>
<path d="M46.6612 198.548C51.6874 198.548 55.7619 194.857 55.7619 190.304C55.7619 185.75 51.6874 182.059 46.6612 182.059C41.6351 182.059 37.5605 185.75 37.5605 190.304C37.5605 194.857 41.6351 198.548 46.6612 198.548Z" fill="white"/>
<path d="M43.2292 258.87C46.5212 258.87 49.1899 256.453 49.1899 253.47C49.1899 250.488 46.5212 248.07 43.2292 248.07C39.9372 248.07 37.2684 250.488 37.2684 253.47C37.2684 256.453 39.9372 258.87 43.2292 258.87Z" fill="#F8BD00"/>
<path opacity="0.2" d="M53.5867 183.818C55.7572 184.775 57.4193 186.473 58.2074 188.54C58.9956 190.606 58.8451 192.872 57.7893 194.838C57.2665 195.812 56.5372 196.682 55.6429 197.401C54.7487 198.119 53.707 198.671 52.5774 199.024C50.2961 199.738 47.7952 199.602 45.6248 198.645C47.7673 198.9 49.94 198.456 51.754 197.392C53.568 196.328 54.905 194.715 55.5255 192.839C56.146 190.964 56.0097 188.95 55.1409 187.158C54.272 185.366 52.7274 183.912 50.7835 183.057C51.7571 183.172 52.7038 183.429 53.5867 183.818Z" fill="#A83332"/>
<path opacity="0.2" d="M76.7925 193.29C74.8339 206.235 52.0381 222.291 47.4654 246.645C45.9721 245.576 44.5681 244.408 43.265 243.151C48.8308 220.158 70.173 204.746 72.0654 192.239C73.7591 181.045 64.9695 171.241 53.3893 167.731C67.1864 169.722 78.7105 180.615 76.7925 193.29Z" fill="#A83332" fill-opacity="0.5"/>
<path d="M155.395 59.9687C153.315 60.0919 151.371 60.9454 149.976 62.3474C148.58 63.7494 147.844 65.5894 147.923 67.4758C147.946 67.859 148.004 68.2399 148.096 68.6144L124.483 82.0907L137.537 87.3211L157.959 73.7219C159.644 73.2555 161.111 72.297 162.132 70.9958C163.152 69.6947 163.668 68.1241 163.6 66.5293C163.551 65.6221 163.306 64.7325 162.877 63.9113C162.449 63.09 161.847 62.3532 161.104 61.7429C160.362 61.1326 159.494 60.6608 158.55 60.3543C157.606 60.0479 156.605 59.9128 155.604 59.9569C155.534 59.9599 155.464 59.9639 155.395 59.9687Z" fill="#FFB6B6"/>
<path d="M132.624 75.9655L138.476 86.9041L115.337 100.393C113.691 101.361 111.798 101.932 109.84 102.051C107.882 102.169 105.922 101.833 104.148 101.072C101.991 100.137 100.228 98.5916 99.1244 96.6695C98.0211 94.7474 97.6374 92.5525 98.031 90.4156L105.539 51.5848C106.043 48.8674 107.678 46.4284 110.106 44.7692C112.535 43.1101 115.573 42.357 118.595 42.6649C120.067 42.8107 121.494 43.2178 122.792 43.863C124.091 44.5081 125.236 45.3786 126.163 46.4248C127.091 47.471 127.781 48.6724 128.196 49.9604C128.611 51.2484 128.741 52.5977 128.58 53.9315C128.568 54.0368 128.553 54.142 128.537 54.247C128.48 54.6201 128.401 54.9902 128.3 55.3556L120.104 82.9713L132.624 75.9655Z" fill="#A83332"/>
<path d="M134.269 92.9229H101.177V122.901H134.269V92.9229Z" fill="#FFB8B8"/>
<path d="M212.746 181.209L225.384 177.358L232.422 208.521L223.858 211.131L212.746 181.209Z" fill="#FFB6B6"/>
<path d="M191.326 178.815L203.862 174.698L211.698 205.704L203.204 208.493L191.326 178.815Z" fill="#FFB6B6"/>
<path d="M102.364 130.732C95.7314 170.789 184.056 147.107 184.056 147.107L211.75 181.715L227.963 179.044C227.963 179.044 220.667 158.268 207.639 130.416C201.853 118.048 136.154 121.07 136.154 121.07L134.79 111.372L97.2053 110.704L102.364 130.732Z" fill="#2F2E41"/>
<path d="M166.165 149.792L186.589 138.269C201.541 165.316 205.948 177.029 205.948 177.029L191.813 180.63L166.165 149.792Z" fill="#2F2E41"/>
<path d="M121.268 44.2092L114.608 36.4532L105.106 36.08L104.158 43.3746L99.4502 45.3412C94.7494 61.5196 94.0234 78.4352 97.3234 94.8953C97.9544 95.4335 98.4154 96.1144 98.6589 96.8678C98.9025 97.6212 98.9197 98.4199 98.7089 99.1813L98.4037 100.284L98.4319 100.324C99.4336 101.756 99.7735 103.487 99.3782 105.144L97.1299 108.763C96.3231 110.065 95.8389 111.51 95.711 112.998C95.5831 114.486 95.8145 115.982 96.3892 117.381C96.9639 118.78 97.8681 120.048 99.0389 121.099C100.21 122.149 101.619 122.956 103.169 123.463C116.989 128.001 129.944 129.691 139.528 116.957L142.542 72.5809L121.268 44.2092Z" fill="#A83332"/>
<path d="M114.291 38.5128C123.993 38.5128 131.858 31.3877 131.858 22.5986C131.858 13.8094 123.993 6.68433 114.291 6.68433C104.589 6.68433 96.7234 13.8094 96.7234 22.5986C96.7234 31.3877 104.589 38.5128 114.291 38.5128Z" fill="#FFB8B8"/>
<path d="M105.472 3.41422C98.0335 3.54367 92.134 9.79394 92.2948 17.3746C86.7903 22.5777 85.4568 48.1697 90.0562 54.9778C98.4698 55.8626 103.587 37.0059 110.966 39.7319L111.938 35.6166L114.141 40.9757C116.016 41.7588 117.877 42.6184 119.724 43.5545C121.051 38.0397 120.722 32.6792 117.155 28.0101C113.986 23.8621 121.698 18.9376 127.214 19.6337L127.133 15.8239L128.518 19.6109C130.668 21.0421 133.046 20.524 135.485 19.4897C139.44 0.870578 108.822 -4.22116 105.472 3.41422Z" fill="#2F2E41"/>
<path d="M219.965 216.402L225.596 215.735L225.906 210.801L229.175 215.312L244.109 213.545C244.825 213.46 245.492 213.17 246.013 212.718C246.534 212.265 246.882 211.674 247.006 211.029C247.13 210.385 247.023 209.722 246.701 209.136C246.379 208.551 245.859 208.074 245.217 207.775L232.215 201.725L231.513 196.857L219.067 199.019L219.965 216.402Z" fill="#2F2E41"/>
<path d="M205.093 216.446L210.201 214.199L208.771 209.429L213.448 212.771L226.996 206.811C227.646 206.526 228.177 206.06 228.514 205.481C228.85 204.902 228.973 204.241 228.865 203.594C228.758 202.948 228.424 202.349 227.915 201.886C227.405 201.423 226.745 201.12 226.031 201.021L211.584 199.011L209.216 194.594L198.167 200.215L205.093 216.446Z" fill="#2F2E41"/>
<path d="M127.981 110.323H134.245V66.6514H129.151C128.904 66.6514 128.667 66.7398 128.492 66.8975C128.317 67.0552 128.219 67.2691 128.217 67.4927L127.981 110.323Z" fill="#F8BD00"/>
<path d="M133.659 79.4524H200.924V110.554H133.659V79.4524Z" fill="white"/>
<path d="M133.787 86.5366V79.5681H200.796V110.438H160.172C153.176 110.431 146.47 107.911 141.524 103.43C136.577 98.9489 133.795 92.8736 133.787 86.5366Z" fill="#F2F2F2"/>
<path d="M129.001 67.8918C129.035 67.9498 129.061 68.0111 129.079 68.0745L131.399 76.1736L133.915 80.4899H200.668V79.4149L196.868 76.1736L192.435 68.4914C192.239 68.1522 191.982 67.8452 191.674 67.5829C190.972 66.9846 190.045 66.6514 189.081 66.6514H129.827C129.666 66.6514 129.508 66.689 129.367 66.7607C129.227 66.8324 129.11 66.9357 129.027 67.0605C128.944 67.1853 128.898 67.3274 128.894 67.4731C128.889 67.6187 128.926 67.763 129.001 67.8918Z" fill="#F2F2F2"/>
<path d="M133.659 79.4524H200.924V110.554H133.659V79.4524ZM200.413 110.091H134.17V79.915H200.413L200.413 110.091Z" fill="#A83332"/>
<path d="M130.16 72.0347L131.399 76.1735H196.868L194.752 72.7288L130.16 72.0347Z" fill="#F8BD00" fill-opacity="0.972549"/>
<path d="M198.443 95.7501H187.721V96.2877H198.443V95.7501Z" fill="white"/>
<path d="M198.443 97.6315H187.721V98.169H198.443V97.6315Z" fill="white"/>
<path d="M198.443 99.5128H187.721V100.05H198.443V99.5128Z" fill="white"/>
<path d="M194.29 89.7623C196.42 89.7623 198.147 88.198 198.147 86.2684C198.147 84.3387 196.42 82.7744 194.29 82.7744C192.16 82.7744 190.433 84.3387 190.433 86.2684C190.433 88.198 192.16 89.7623 194.29 89.7623Z" fill="white"/>
<path d="M163.177 33.4755C167.71 33.3769 172.101 34.9138 175.384 37.7481C178.666 40.5824 180.572 44.4819 180.681 48.5888C180.907 57.1409 174.186 75.1335 164.463 82.025C161.661 67.1025 147.694 57.2642 146.493 49.3324C145.211 40.857 153.736 33.6809 163.177 33.4755Z" fill="#F8BD00"/>
<path d="M164.933 52.5686C168.013 52.5686 170.509 50.3069 170.509 47.517C170.509 44.727 168.013 42.4653 164.933 42.4653C161.853 42.4653 159.356 44.727 159.356 47.517C159.356 50.3069 161.853 52.5686 164.933 52.5686Z" fill="white"/>
<path d="M167.036 89.5306C169.053 89.5306 170.688 88.0493 170.688 86.2219C170.688 84.3946 169.053 82.9132 167.036 82.9132C165.019 82.9132 163.383 84.3946 163.383 86.2219C163.383 88.0493 165.019 89.5306 167.036 89.5306Z" fill="#D1D3D4"/>
<path opacity="0.2" d="M160.689 43.5431C160.031 43.8333 159.442 44.2382 158.956 44.7346C158.47 45.231 158.097 45.8092 157.858 46.4362C157.619 47.0632 157.518 47.7267 157.562 48.3889C157.606 49.0511 157.794 49.699 158.114 50.2955C158.434 50.892 158.881 51.4256 159.429 51.8657C159.977 52.3058 160.616 52.6437 161.308 52.8604C162 53.077 162.732 53.168 163.463 53.1282C164.194 53.0884 164.909 52.9185 165.568 52.6283C164.255 52.7845 162.924 52.5123 161.812 51.8605C160.701 51.2087 159.881 50.2198 159.501 49.0708C159.121 47.9219 159.205 46.6878 159.737 45.5896C160.269 44.4913 161.216 43.6005 162.407 43.0767C161.81 43.1472 161.23 43.3047 160.689 43.5431Z" fill="#F8BD00"/>
<path opacity="0.2" d="M146.47 49.3469C147.67 57.2787 161.638 67.117 164.44 82.0395C165.355 81.3845 166.215 80.6691 167.014 79.8992C163.603 65.8102 150.526 56.3664 149.367 48.7028C148.329 41.8438 153.715 35.8365 160.81 33.6854C152.356 34.9053 145.295 41.58 146.47 49.3469Z" fill="#F8BD00"/>
<path d="M153.243 75.4828C151.164 75.3434 149.108 75.9441 147.512 77.1571C145.915 78.37 144.904 80.0996 144.693 81.9777C144.657 82.36 144.656 82.7444 144.69 83.127L119.24 93.5033L131.367 100.325L153.675 89.4254C155.415 89.1755 157.015 88.4107 158.225 87.2505C159.435 86.0902 160.186 84.5998 160.363 83.0118C160.546 81.1851 159.921 79.3671 158.625 77.9579C157.329 76.5487 155.468 75.6636 153.452 75.4974C153.382 75.4917 153.312 75.4868 153.243 75.4828Z" fill="#FFB6B6"/>
<path d="M128.241 88.4613L132.361 100.03L107.379 110.478C105.6 111.23 103.638 111.557 101.681 111.429C99.7229 111.3 97.8341 110.72 96.1935 109.744C94.2006 108.546 92.6914 106.794 91.8933 104.752C91.0953 102.71 91.0516 100.488 91.7689 98.4212L105.155 60.9105C106.07 58.2829 108.063 56.073 110.722 54.7353C113.381 53.3976 116.505 53.0338 119.451 53.7188C120.887 54.0484 122.237 54.6309 123.424 55.4331C124.611 56.2353 125.612 57.2414 126.37 58.3941C127.128 59.5467 127.628 60.8233 127.841 62.151C128.054 63.4787 127.977 64.8314 127.613 66.132C127.584 66.2347 127.554 66.3371 127.522 66.439C127.408 66.8013 127.273 67.1579 127.118 67.5071L114.769 93.8247L128.241 88.4613Z" fill="#A83332"/>
</g>
<defs>
<clipPath id="clip0_35_38">
<rect width="513" height="335" fill="white"/>
</clipPath>
</defs>
</svg>
