<svg width="183" height="29" viewBox="0 0 183 29" fill="none" xmlns="http://www.w3.org/2000/svg">
<path d="M20.0256 8.0142H15.054C14.9877 7.50379 14.8518 7.04309 14.6463 6.6321C14.4408 6.22112 14.169 5.86979 13.831 5.57812C13.4929 5.28646 13.0919 5.06439 12.6278 4.91193C12.1705 4.75284 11.6634 4.67329 11.1065 4.67329C10.1188 4.67329 9.26705 4.91525 8.55114 5.39915C7.84186 5.88305 7.29498 6.58239 6.91051 7.49716C6.53267 8.41193 6.34375 9.51894 6.34375 10.8182C6.34375 12.1705 6.53598 13.304 6.92045 14.2188C7.31155 15.1269 7.85843 15.813 8.56108 16.277C9.27036 16.7344 10.1089 16.9631 11.0767 16.9631C11.6203 16.9631 12.1141 16.8935 12.5582 16.7543C13.009 16.6151 13.4034 16.4129 13.7415 16.1477C14.0862 15.8759 14.3679 15.5478 14.5866 15.1634C14.812 14.7723 14.9678 14.3314 15.054 13.8409L20.0256 13.8707C19.9394 14.7723 19.6776 15.6605 19.2401 16.5355C18.8092 17.4105 18.2159 18.2093 17.4602 18.9318C16.7045 19.6477 15.7831 20.2178 14.696 20.642C13.6155 21.0663 12.3759 21.2784 10.9773 21.2784C9.13447 21.2784 7.4839 20.8741 6.02557 20.0653C4.57386 19.25 3.42708 18.0634 2.58523 16.5057C1.74337 14.9479 1.32244 13.0521 1.32244 10.8182C1.32244 8.57765 1.75 6.6785 2.60511 5.12074C3.46023 3.56297 4.61695 2.37973 6.07528 1.57102C7.53362 0.76231 9.16761 0.357954 10.9773 0.357954C12.2102 0.357954 13.3504 0.530303 14.3977 0.875C15.4451 1.21307 16.3665 1.71023 17.1619 2.36648C17.9574 3.0161 18.6037 3.81487 19.1009 4.76278C19.598 5.7107 19.9062 6.79451 20.0256 8.0142ZM27.1474 21.2585C26.1729 21.2585 25.3079 21.0961 24.5522 20.7713C23.8031 20.4399 23.2099 19.9427 22.7724 19.2798C22.3415 18.6103 22.1261 17.7718 22.1261 16.7642C22.1261 15.9157 22.2752 15.1998 22.5735 14.6165C22.8718 14.0331 23.2828 13.5592 23.8065 13.1946C24.3301 12.83 24.9334 12.5549 25.6161 12.3693C26.2989 12.1771 27.0281 12.0478 27.8036 11.9815C28.672 11.902 29.3713 11.8191 29.9016 11.733C30.4319 11.6402 30.8164 11.5109 31.055 11.3452C31.3003 11.1728 31.4229 10.9309 31.4229 10.6193V10.5696C31.4229 10.0592 31.2473 9.66477 30.896 9.38636C30.5446 9.10795 30.0707 8.96875 29.4741 8.96875C28.8311 8.96875 28.314 9.10795 27.9229 9.38636C27.5318 9.66477 27.2833 10.0492 27.1772 10.5398L22.6928 10.3807C22.8254 9.45265 23.1668 8.62405 23.717 7.89489C24.2738 7.15909 25.0361 6.58239 26.0039 6.16477C26.9783 5.74053 28.1483 5.52841 29.5138 5.52841C30.4883 5.52841 31.3865 5.64441 32.2085 5.87642C33.0304 6.1018 33.7463 6.43324 34.3562 6.87074C34.966 7.30161 35.4367 7.83191 35.7681 8.46165C36.1062 9.09138 36.2752 9.81061 36.2752 10.6193V21H31.7013V18.8722H31.582C31.3103 19.3892 30.9622 19.8267 30.538 20.1847C30.1204 20.5426 29.6265 20.8111 29.0565 20.9901C28.493 21.169 27.8567 21.2585 27.1474 21.2585ZM28.6488 18.0767C29.1725 18.0767 29.6431 17.9706 30.0607 17.7585C30.485 17.5464 30.823 17.2547 31.0749 16.8835C31.3268 16.5057 31.4528 16.0682 31.4528 15.571V14.1193C31.3136 14.1922 31.1445 14.2585 30.9457 14.3182C30.7534 14.3778 30.5413 14.4342 30.3093 14.4872C30.0773 14.5402 29.8387 14.5866 29.5934 14.6264C29.3481 14.6662 29.1128 14.7027 28.8874 14.7358C28.43 14.8087 28.0389 14.9214 27.7141 15.0739C27.396 15.2263 27.1507 15.4252 26.9783 15.6705C26.8126 15.9091 26.7298 16.1941 26.7298 16.5256C26.7298 17.0294 26.9087 17.4138 27.2667 17.679C27.6313 17.9441 28.092 18.0767 28.6488 18.0767ZM39.2482 21V5.72727H43.8718V8.53125H44.0408C44.359 7.60322 44.896 6.87074 45.6516 6.33381C46.4073 5.79688 47.3088 5.52841 48.3562 5.52841C49.4168 5.52841 50.3249 5.80019 51.0806 6.34375C51.8363 6.88731 52.3169 7.61648 52.5224 8.53125H52.6815C52.9665 7.62311 53.5233 6.89725 54.3519 6.35369C55.1805 5.8035 56.1583 5.52841 57.2852 5.52841C58.7302 5.52841 59.9035 5.99242 60.805 6.92045C61.7066 7.84186 62.1573 9.10795 62.1573 10.7188V21H57.2951V11.8324C57.2951 11.0701 57.0996 10.4901 56.7085 10.0923C56.3174 9.68797 55.8103 9.4858 55.1871 9.4858C54.5176 9.4858 53.9906 9.70455 53.6062 10.142C53.2283 10.5729 53.0394 11.1529 53.0394 11.8821V21H48.3661V11.7827C48.3661 11.0734 48.1739 10.5133 47.7894 10.1023C47.4049 9.69129 46.8978 9.4858 46.2681 9.4858C45.8439 9.4858 45.4693 9.58854 45.1445 9.79403C44.8197 9.9929 44.5645 10.2779 44.3789 10.6491C44.1999 11.0204 44.1104 11.4579 44.1104 11.9616V21H39.2482ZM65.1701 26.7273V5.72727H69.9826V8.34233H70.1317C70.3306 7.87831 70.6123 7.43087 70.9769 7C71.3481 6.56913 71.8188 6.2178 72.3888 5.94602C72.9656 5.66761 73.6549 5.52841 74.457 5.52841C75.5176 5.52841 76.5086 5.80682 77.43 6.36364C78.3581 6.92045 79.1071 7.77888 79.6772 8.93892C80.2473 10.099 80.5323 11.5772 80.5323 13.3736C80.5323 15.1037 80.2572 16.5521 79.707 17.7188C79.1635 18.8854 78.4277 19.7604 77.4996 20.3438C76.5782 20.9271 75.5541 21.2188 74.4272 21.2188C73.6583 21.2188 72.9921 21.0928 72.4286 20.8409C71.8652 20.589 71.3912 20.2576 71.0067 19.8466C70.6289 19.4356 70.3372 18.9948 70.1317 18.5241H70.0323V26.7273H65.1701ZM69.9329 13.3636C69.9329 14.1856 70.0423 14.9015 70.261 15.5114C70.4864 16.1212 70.8079 16.5952 71.2255 16.9332C71.6497 17.2647 72.1568 17.4304 72.7468 17.4304C73.3434 17.4304 73.8505 17.2647 74.2681 16.9332C74.6857 16.5952 75.0006 16.1212 75.2127 15.5114C75.4315 14.9015 75.5408 14.1856 75.5408 13.3636C75.5408 12.5417 75.4315 11.8291 75.2127 11.2259C75.0006 10.6226 74.6857 10.1553 74.2681 9.82386C73.8571 9.49242 73.35 9.3267 72.7468 9.3267C72.1502 9.3267 71.6431 9.48911 71.2255 9.81392C70.8079 10.1387 70.4864 10.6027 70.261 11.206C70.0423 11.8092 69.9329 12.5284 69.9329 13.3636ZM92.9339 14.4077V5.72727H97.7862V21H93.1527V18.1562H92.9936C92.6555 19.0909 92.0788 19.8333 91.2635 20.3835C90.4548 20.9271 89.477 21.1989 88.3303 21.1989C87.2895 21.1989 86.3748 20.9602 85.5859 20.483C84.7971 20.0057 84.1839 19.3395 83.7464 18.4844C83.3089 17.6226 83.0869 16.6151 83.0803 15.4616V5.72727H87.9425V14.5071C87.9491 15.3357 88.1679 15.9886 88.5987 16.4659C89.0296 16.9432 89.6162 17.1818 90.3587 17.1818C90.8426 17.1818 91.2768 17.0758 91.6612 16.8636C92.0523 16.6449 92.3606 16.33 92.5859 15.919C92.8179 15.5014 92.9339 14.9976 92.9339 14.4077ZM114.215 10.3906L109.75 10.5099C109.704 10.1918 109.578 9.91004 109.373 9.66477C109.167 9.41288 108.899 9.21733 108.567 9.07812C108.242 8.93229 107.864 8.85938 107.434 8.85938C106.87 8.85938 106.39 8.97206 105.992 9.19744C105.601 9.42282 105.408 9.72775 105.415 10.1122C105.408 10.4105 105.528 10.669 105.773 10.8878C106.025 11.1065 106.472 11.2822 107.115 11.4148L110.059 11.9716C111.583 12.2633 112.717 12.7472 113.459 13.4233C114.208 14.0994 114.586 14.9943 114.593 16.108C114.586 17.1553 114.275 18.0668 113.658 18.8423C113.048 19.6179 112.213 20.2211 111.152 20.652C110.092 21.0762 108.879 21.2884 107.513 21.2884C105.332 21.2884 103.612 20.8409 102.353 19.946C101.1 19.0445 100.384 17.8381 100.205 16.3267L105.007 16.2074C105.114 16.7642 105.389 17.1884 105.833 17.4801C106.277 17.7718 106.844 17.9176 107.533 17.9176C108.156 17.9176 108.663 17.8016 109.054 17.5696C109.445 17.3376 109.644 17.0294 109.651 16.6449C109.644 16.3002 109.492 16.0251 109.194 15.8196C108.895 15.6075 108.428 15.4418 107.792 15.3224L105.127 14.8153C103.596 14.5369 102.455 14.0232 101.706 13.2741C100.957 12.5185 100.586 11.5573 100.593 10.3906C100.586 9.36979 100.858 8.49811 101.408 7.77557C101.958 7.0464 102.74 6.48958 103.755 6.10511C104.769 5.72064 105.965 5.52841 107.344 5.52841C109.412 5.52841 111.043 5.96259 112.236 6.83097C113.429 7.69271 114.089 8.87926 114.215 10.3906Z" fill="#A83332"/>
<path d="M123.002 21V0.636363H137.201V4.63352H127.924V8.80966H136.475V12.8168H127.924V17.0028H137.201V21H123.002ZM144.589 21.2585C143.614 21.2585 142.749 21.0961 141.994 20.7713C141.245 20.4399 140.651 19.9427 140.214 19.2798C139.783 18.6103 139.567 17.7718 139.567 16.7642C139.567 15.9157 139.717 15.1998 140.015 14.6165C140.313 14.0331 140.724 13.5592 141.248 13.1946C141.772 12.83 142.375 12.5549 143.058 12.3693C143.74 12.1771 144.469 12.0478 145.245 11.9815C146.113 11.902 146.813 11.8191 147.343 11.733C147.873 11.6402 148.258 11.5109 148.496 11.3452C148.742 11.1728 148.864 10.9309 148.864 10.6193V10.5696C148.864 10.0592 148.689 9.66477 148.337 9.38636C147.986 9.10795 147.512 8.96875 146.915 8.96875C146.272 8.96875 145.755 9.10795 145.364 9.38636C144.973 9.66477 144.725 10.0492 144.619 10.5398L140.134 10.3807C140.267 9.45265 140.608 8.62405 141.158 7.89489C141.715 7.15909 142.478 6.58239 143.445 6.16477C144.42 5.74053 145.59 5.52841 146.955 5.52841C147.93 5.52841 148.828 5.64441 149.65 5.87642C150.472 6.1018 151.188 6.43324 151.798 6.87074C152.407 7.30161 152.878 7.83191 153.21 8.46165C153.548 9.09138 153.717 9.81061 153.717 10.6193V21H149.143V18.8722H149.023C148.752 19.3892 148.404 19.8267 147.979 20.1847C147.562 20.5426 147.068 20.8111 146.498 20.9901C145.934 21.169 145.298 21.2585 144.589 21.2585ZM146.09 18.0767C146.614 18.0767 147.085 17.9706 147.502 17.7585C147.926 17.5464 148.264 17.2547 148.516 16.8835C148.768 16.5057 148.894 16.0682 148.894 15.571V14.1193C148.755 14.1922 148.586 14.2585 148.387 14.3182C148.195 14.3778 147.983 14.4342 147.751 14.4872C147.519 14.5402 147.28 14.5866 147.035 14.6264C146.79 14.6662 146.554 14.7027 146.329 14.7358C145.871 14.8087 145.48 14.9214 145.156 15.0739C144.837 15.2263 144.592 15.4252 144.42 15.6705C144.254 15.9091 144.171 16.1941 144.171 16.5256C144.171 17.0294 144.35 17.4138 144.708 17.679C145.073 17.9441 145.533 18.0767 146.09 18.0767ZM165.31 5.72727V9.30682H155.675V5.72727H165.31ZM157.694 2.06818H162.556V16.1974C162.556 16.4957 162.603 16.7377 162.695 16.9233C162.795 17.1023 162.937 17.2315 163.123 17.3111C163.308 17.384 163.531 17.4205 163.789 17.4205C163.975 17.4205 164.17 17.4039 164.376 17.3707C164.588 17.331 164.747 17.2978 164.853 17.2713L165.589 20.7812C165.357 20.8475 165.029 20.9304 164.604 21.0298C164.187 21.1293 163.686 21.1922 163.103 21.2188C161.963 21.2718 160.985 21.1392 160.17 20.821C159.361 20.4962 158.741 19.9924 158.31 19.3097C157.886 18.6269 157.681 17.7685 157.694 16.7344V2.06818ZM180.934 10.3906L176.469 10.5099C176.423 10.1918 176.297 9.91004 176.091 9.66477C175.886 9.41288 175.617 9.21733 175.286 9.07812C174.961 8.93229 174.583 8.85938 174.152 8.85938C173.589 8.85938 173.108 8.97206 172.711 9.19744C172.319 9.42282 172.127 9.72775 172.134 10.1122C172.127 10.4105 172.247 10.669 172.492 10.8878C172.744 11.1065 173.191 11.2822 173.834 11.4148L176.777 11.9716C178.302 12.2633 179.435 12.7472 180.178 13.4233C180.927 14.0994 181.305 14.9943 181.311 16.108C181.305 17.1553 180.993 18.0668 180.377 18.8423C179.767 19.6179 178.932 20.2211 177.871 20.652C176.81 21.0762 175.597 21.2884 174.232 21.2884C172.051 21.2884 170.331 20.8409 169.071 19.946C167.819 19.0445 167.103 17.8381 166.924 16.3267L171.726 16.2074C171.832 16.7642 172.107 17.1884 172.551 17.4801C172.996 17.7718 173.562 17.9176 174.252 17.9176C174.875 17.9176 175.382 17.8016 175.773 17.5696C176.164 17.3376 176.363 17.0294 176.37 16.6449C176.363 16.3002 176.211 16.0251 175.912 15.8196C175.614 15.6075 175.147 15.4418 174.51 15.3224L171.846 14.8153C170.314 14.5369 169.174 14.0232 168.425 13.2741C167.676 12.5185 167.305 11.5573 167.311 10.3906C167.305 9.36979 167.577 8.49811 168.127 7.77557C168.677 7.0464 169.459 6.48958 170.473 6.10511C171.488 5.72064 172.684 5.52841 174.063 5.52841C176.131 5.52841 177.762 5.96259 178.955 6.83097C180.148 7.69271 180.808 8.87926 180.934 10.3906Z" fill="#F8BD00"/>
<path d="M0 26.5682H115.438V28.4773H0V26.5682Z" fill="#A83332"/>
<path d="M115.445 26.5682H121.471V28.4773H115.445V26.5682Z" fill="white"/>
<path d="M121.461 26.5682H182.157V28.4773H121.461V26.5682Z" fill="#F8BD00"/>
</svg>
